# xmcd
#
# Track frame offsets:
#	150
#	15981
#	29897
#	43496
#	59140
#	72994
#	85956
#	99505
#	113005
#	128276
#	142513
#	157436
#	170665
#	183826
#	196280
#	211370
#	226491
#	241401
#	257464
#	270689
#
# Disc length: 3770 seconds
#
# Revision: 0
# Processed by: cddbd v1.5.2PL0 Copyright (c) Steve Scherf et al.
# Submitted via: EasyCDDAExtractor 16.0.6.1
#
DISCID=1f0eb814
DTITLE=Γκρέϋ Καίτη - Τραγούδια 45 στροφές-Γκρέϋ Καίτη 4
DYEAR=2000
DGENRE=Λαϊκή
TTITLE0=Γκρέϋ Καίτη - Σήμερα θα κλάψω [1963, Βασίλης Βασιλειάδης]
TTITLE1=Γκρέϋ Καίτη - Βουνό είναι ο πόνος μου [1962, Νίκος Δαλέζιος]
TTITLE2=Γκρέϋ Καίτη - Με γέρασες, με γέρασες [1960, Μπάμπης Μπακάλης]
TTITLE3=Γκρέϋ Καίτη - Μού είχες πει, ότι θα ζήσουμε μαζί [1961, Κ. Ζήτης]
TTITLE4=Γκρέϋ Καίτη - Και τι δεν έκανα για σένα [1968, Στέφανος Βαρτάνης]
TTITLE5=Γκρέϋ Καίτη - Μού δίνεις ποτήρι πικρό [1969, Ι. Βασιλόπουλος-Ευάγγελος
TTITLE5=Ατραΐδης]
TTITLE6=Γκρέϋ Καίτη - Σε περιμένω [1969, Θόδωρος Δερβενιώτης-Δ. Σουμαλεύρη]
TTITLE7=Γκρέϋ Καίτη - Η αγάπη και τα πλούτη [1969, Θόδωρος Πολυκανδριώτης]
TTITLE8=Γκρέϋ Καίτη-Γκίκα Βούλα - Μαύρη νά 'τανε η ώρα [1962, Θόδωρος Δερβενιώ
TTITLE8=της]
TTITLE9=Γκρέϋ Καίτη-Γκίκα Βούλα - Καρδιά μου μην κλαις [1962, Μπάμπης Δαλιάνης
TTITLE9=Χρήστος Κολοκοτρώνης]
TTITLE10=Γκρέϋ Καίτη - Αγάπη μού 'γινες βραχνάς [1969, Νίκος Δαλέζιος]
TTITLE11=Γκρέϋ Καίτη-Τζαννής Δημήτρης - Να φύγεις πριν να πληγωθείς [1967, Μπά
TTITLE11=μπης Μπακάλης]
TTITLE12=Γκρέϋ Καίτη - Η μάννα που με γέννησε [1966, Γιάννης Παλαιολόγου]
TTITLE13=Γκρέϋ Καίτη - Το αμαρτωλό σκαλοπάτι [1969, Θόδωρος Πολυκανδριώτης]
TTITLE14=Γκρέϋ Καίτη - Προτού να πας φαντάρος [1968, Μπάμπης Μπακάλης]
TTITLE15=Γκρέϋ Καίτη - Τι να πω και τι να κάνω [1969, Θόδωρος Δερβενιώτης-Δ. Σ
TTITLE15=ουμαλευρής]
TTITLE16=Γκρέϋ Καίτη - Έλα αγάπη μου [1962, Γιάννης Καραμπεσίνης]
TTITLE17=Γκρέϋ Καίτη - Τα χτυπήματα [1961, Αν. Αθανασίου]
TTITLE18=Γκρέϋ Καίτη - Η ορφάνια με σπαράζει [1966, Β. Ατραΐδης-Γιάννης Βασιλό
TTITLE18=πουλος]
TTITLE19=Γκρέϋ Καίτη - Δεν κάνω εγώ για παντρειά [1960, Π. Πετσάς]
EXTD=
EXTT0=
EXTT1=
EXTT2=
EXTT3=
EXTT4=
EXTT5=
EXTT6=
EXTT7=
EXTT8=
EXTT9=
EXTT10=
EXTT11=
EXTT12=
EXTT13=
EXTT14=
EXTT15=
EXTT16=
EXTT17=
EXTT18=
EXTT19=
PLAYORDER=
